HIERARCHY
ROOT Hips
{
  OFFSET 17.3492 39.9336 -5.90442
  CHANNELS 6 Xposition Yposition Zposition Zrotation Xrotation Yrotation
  JOINT LeftHip
  {
    OFFSET 3.43 0 2.22045e-015
    CHANNELS 3 Zrotation Xrotation Yrotation
    JOINT LeftKnee
    {
      OFFSET -8.88178e-014 -18.47 2.13163e-013
      CHANNELS 3 Zrotation Xrotation Yrotation
      JOINT LeftAnkle
      {
        OFFSET -5.03064e-012 -17.95 2.77511e-012
        CHANNELS 3 Zrotation Xrotation Yrotation
        End Site
        {
          OFFSET 0 -3.12 0
        }
      }
    }
  }
  JOINT RightHip
  {
    OFFSET -3.43 0 1.33227e-015
    CHANNELS 3 Zrotation Xrotation Yrotation
    JOINT RightKnee
    {
      OFFSET 7.99361e-014 -18.47 8.9706e-014
      CHANNELS 3 Zrotation Xrotation Yrotation
      JOINT RightAnkle
      {
        OFFSET 3.82805e-012 -17.95 1.49214e-012
        CHANNELS 3 Zrotation Xrotation Yrotation
        End Site
        {
          OFFSET 0 -3.12 0
        }
      }
    }
  }
  JOINT Chest
  {
    OFFSET -4.26326e-014 4.57 2.66454e-015
    CHANNELS 3 Zrotation Xrotation Yrotation
    JOINT Chest2
    {
      OFFSET 0 6.57 4.44089e-016
      CHANNELS 3 Zrotation Xrotation Yrotation
      JOINT LeftCollar
      {
        OFFSET 1.06 4.19 1.76
        CHANNELS 3 Zrotation Xrotation Yrotation
        JOINT LeftShoulder
        {
          OFFSET 5.81 -3.55271e-014 2.22045e-015
          CHANNELS 3 Zrotation Xrotation Yrotation
          JOINT LeftElbow
          {
            OFFSET 1.35003e-013 -12.08 -1.27898e-013
            CHANNELS 3 Zrotation Xrotation Yrotation
            JOINT LeftWrist
            {
              OFFSET 7.95808e-013 -9.82 -4.03233e-013
              CHANNELS 3 Zrotation Xrotation Yrotation
              End Site
              {
                OFFSET 0 -7.37 0
              }
            }
          }
        }
      }
      JOINT RightCollar
      {
        OFFSET -1.06 4.19 1.76
        CHANNELS 3 Zrotation Xrotation Yrotation
        JOINT RightShoulder
        {
          OFFSET -6.06 -2.13163e-014 1.12133e-014
          CHANNELS 3 Zrotation Xrotation Yrotation
          JOINT RightElbow
          {
            OFFSET -1.06581e-013 -11.08 1.33227e-014
            CHANNELS 3 Zrotation Xrotation Yrotation
            JOINT RightWrist
            {
              OFFSET -6.46594e-013 -9.82 -6.27054e-013
              CHANNELS 3 Zrotation Xrotation Yrotation
              End Site
              {
                OFFSET 0 -7.14001 0
              }
            }
          }
        }
      }
      JOINT Neck
      {
        OFFSET -3.55271e-015 4.05 7.99361e-015
        CHANNELS 3 Zrotation Xrotation Yrotation
        JOINT Head
        {
          OFFSET -1.42109e-014 5.19 1.42109e-014
          CHANNELS 3 Zrotation Xrotation Yrotation
          End Site
          {
            OFFSET 0 4.14001 0
          }
        }
      }
    }
  }
}
MOTION
Frames:	7
Frame Time:	0.0333333
17.3492 39.9336 -5.90442 0.820478 -4.03058 -0.793161 1.67408 1.27041 0.00239991 0.657875 10.8345 19.4155 -2.96849 -6.54992 -0.169898 -6.07941 0.876221 -8.09844 -0.779605 11.1093 -1.35649 5.67448 -5.29845 0.262777 -0.192659 0.209033 -0.0553323 0.0828493 -2.2753 -0.523851 9.79878 0.132387 3.15866 93.6906 7.37231 6.96156 -2.73903 -5.19525 -0.248207 0.559306 3.73098 3.26968 -11.0075 0.450262 -3.1374 -92.697 5.62941 2.54701 -0.559044 -0.841021 -0.00820594 -5.64724 0.523146 -3.28508 -0.793183 14.1675 0.312139 0.0885194 -2.95224 0.320255 
17.3547 39.9284 -5.91373 0.826547 -4.07365 -0.974866 1.65542 1.2219 0.00536551 0.599105 10.8902 19.4482 -2.96466 -6.53495 -0.16929 -6.14082 0.745966 -8.12805 -0.773426 11.3077 -1.29938 5.67677 -5.33206 0.264553 -0.333853 0.205541 -0.30336 -0.10209 -2.34043 -0.939928 10.5511 0.153875 3.17316 93.1865 8.34328 6.43839 -2.70312 -5.55684 -0.261945 0.616067 3.74984 3.35243 -10.0459 0.393108 -2.43977 -93.3553 5.22107 2.18635 -0.528631 -0.849793 -0.00784042 -5.39217 0.474486 -2.80147 -0.395607 14.3734 0.690777 0.0161882 -2.90991 0.917406 
17.3589 39.9315 -5.92046 0.900589 -4.08558 -1.01681 1.64031 1.47925 0.0506987 0.558915 10.4454 19.147 -2.92302 -6.36964 -0.162681 -6.18396 0.79652 -8.1413 -0.746759 11.1936 -1.33107 5.6226 -5.32476 0.261665 -0.450253 0.203772 -0.302398 -0.129385 -2.33696 -0.954577 10.5616 0.155398 3.19848 93.1028 8.44144 6.55823 -2.58642 -5.67345 -0.255862 0.541587 3.85818 2.9071 -9.97388 0.388226 -2.36274 -93.3495 5.20639 2.07999 -0.561771 -0.850109 -0.00833506 -5.31199 0.474299 -2.81718 -0.358264 14.4185 0.692794 0.0258409 -2.90694 0.920444 
17.3565 39.9386 -5.92308 0.912908 -4.13237 -1.00516 1.58373 1.4529 -0.00281687 0.630755 10.6221 19.4307 -2.86215 -6.43231 -0.160862 -6.21314 0.925758 -8.13403 -0.781307 11.0337 -1.07843 5.65232 -5.23365 0.258543 -0.492724 0.194355 -0.295206 -0.213083 -2.2994 -0.96436 10.7874 0.159834 3.16124 93.0279 8.44444 6.59385 -2.62832 -5.85048 -0.268098 0.357613 3.79796 2.98607 -9.66505 0.384211 -2.42077 -93.4468 5.19595 2.03768 -0.62257 -0.919974 -0.00999631 -5.31516 0.443027 -2.98074 -0.0395334 14.5378 0.577582 -0.285117 -2.95826 1.02331 
17.3578 39.9308 -5.91874 0.884386 -4.13997 -1.03578 1.60141 1.01973 0.0113116 0.602948 11.4554 19.3163 -2.77685 -6.82641 -0.16565 -6.21036 0.920541 -8.14921 -0.752347 11.0531 -0.988248 5.63281 -5.29025 0.26044 -0.488361 0.165304 -0.304961 -0.24505 -2.3357 -0.991081 11.309 0.171266 3.10685 92.345 8.61021 6.84441 -2.44626 -6.26612 -0.267161 0.424209 3.97498 2.07385 -9.59385 0.377705 -2.29619 -93.4261 5.27979 1.97824 -0.718184 -0.977337 -0.0122507 -5.0186 0.413792 -2.60734 0.123249 14.608 0.47491 -0.535956 -2.81592 1.05007 
17.3584 39.9266 -5.92654 0.839453 -4.13391 -1.06213 1.61443 1.1755 -0.00518179 0.598083 11.1027 19.6285 -2.94128 -6.62624 -0.170306 -6.18235 0.82164 -8.17778 -0.724915 11.2289 -1.21018 5.63455 -5.32523 0.262245 -0.426415 0.166726 -0.322052 -0.222353 -2.35456 -0.998083 10.7773 0.153943 3.05012 92.8787 8.65159 6.63132 -2.55252 -6.19773 -0.275751 0.288682 4.13418 2.4435 -9.65477 0.377431 -2.25937 -93.4728 5.21375 2.08036 -0.602892 -0.917526 -0.00965456 -5.28812 0.407043 -2.79788 -0.0325778 14.5544 0.611534 -0.389382 -2.48455 1.09038 
17.3571 39.9314 -5.93053 0.968056 -4.17862 -1.03722 1.51389 1.21557 -0.033488 0.641884 11.1273 19.6284 -2.84011 -6.62411 -0.164393 -6.25499 0.860497 -8.18344 -0.759039 11.2716 -1.27618 5.62238 -5.39216 0.264971 -0.628762 0.163513 -0.324641 -0.367774 -2.32634 -1.04508 11.366 0.167363 3.00884 92.4516 8.65345 6.74088 -2.52942 -6.44475 -0.284097 0.484525 4.46171 2.67329 -9.234 0.373191 -2.36941 -93.6367 5.08239 2.01624 -0.638722 -0.978462 -0.0109076 -5.28783 0.598852 -2.81101 0.403139 14.6167 0.451332 -0.755204 -2.44158 1.20465 
